<svg width="795" height="473" viewBox="0 0 795 473" fill="none" xmlns="http://www.w3.org/2000/svg">
<path style="mix-blend-mode:multiply" d="M442.731 90.1706C435.366 90.5347 428.117 93.2247 422.487 98.2424C410.353 109.062 410.353 126.604 422.487 137.424C428.555 142.833 436.507 145.538 444.46 145.538C452.412 145.538 460.366 142.833 466.432 137.424C472.058 132.406 475.076 125.942 475.484 119.374L442.731 90.1706ZM435.744 127.089H429.591L436.113 117.395L439.108 121.842L435.744 127.089ZM438.724 127.089L449.059 110.964L459.396 127.089H438.724ZM468.863 116.735C466.874 116.428 464.926 115.932 463.036 115.249C459.506 113.972 456.335 112.095 453.615 109.671C450.697 107.069 448.495 104.019 447.067 100.603C446.447 99.1226 445.99 97.6104 445.69 96.0736L468.863 116.735ZM470.546 128.053C469.123 130.938 467.122 133.542 464.601 135.791C461.881 138.216 458.711 140.093 455.18 141.37C451.767 142.604 448.161 143.229 444.46 143.229C440.759 143.229 437.152 142.604 433.741 141.37C430.208 140.093 427.04 138.216 424.32 135.791C421.6 133.366 419.494 130.54 418.062 127.391C416.678 124.348 415.976 121.132 415.976 117.833C415.976 114.533 416.677 111.318 418.062 108.275C419.494 105.126 421.6 102.3 424.32 99.8743C426.843 97.6247 429.763 95.842 432.997 94.5756C435.779 93.4865 438.712 92.8081 441.741 92.5522L442.745 93.4477C443.092 98.4112 444.931 103.308 448.261 107.558L440.577 119.544L436.113 112.907L425.015 129.399H434.264H447.21H463.856L452.827 112.19C458.235 116.59 464.963 118.98 471.808 119.361L472.814 120.258C472.528 122.957 471.765 125.574 470.546 128.053Z" fill="url(#paint0_linear)"/>
<path d="M709.456 79.097L694.29 94.9298L692.908 96.3726L677.74 112.205L710.229 136.947L725.395 121.114L726.777 119.671L741.945 103.839L709.456 79.097ZM710.002 134.385L680.613 112.004L694.457 97.5522L723.846 119.934L710.002 134.385ZM695.839 96.1095L709.681 81.6578L739.071 104.039L725.228 118.491L695.839 96.1093V96.1095Z" fill="white"/>
<path d="M713.263 94.9697L713.937 91.3735L704.296 94.2577L707.612 96.7828L712.255 100.318L718.22 104.86L720.846 92.5422L713.263 94.9697ZM708.354 94.9588L711.372 94.0515L711.067 95.6779L709.819 96.0737L708.354 94.9588ZM711.601 97.4312L718.183 95.3239L716.877 101.449L711.601 97.4312Z" fill="white"/>
<path d="M716.13 105.651L703.752 96.2235C703.328 95.9008 702.682 95.9462 702.315 96.3281C701.954 96.7049 702.006 97.282 702.428 97.6047L714.809 107.032C715.236 107.358 715.877 107.308 716.237 106.931C716.604 106.549 716.56 105.977 716.13 105.651Z" fill="white"/>
<path d="M688.554 112.089C688.13 111.767 687.488 111.807 687.12 112.189C686.755 112.571 686.812 113.143 687.236 113.466C687.663 113.792 688.305 113.752 688.671 113.37C689.036 112.988 688.981 112.415 688.554 112.089Z" fill="white"/>
<path d="M691.646 114.445C691.224 114.123 690.582 114.164 690.216 114.545C689.849 114.927 689.906 115.499 690.328 115.821C690.756 116.147 691.398 116.107 691.765 115.725C692.131 115.343 692.076 114.771 691.646 114.445Z" fill="white"/>
<path d="M694.748 116.804C694.318 116.478 693.676 116.519 693.31 116.901C692.945 117.283 693 117.855 693.428 118.181C693.852 118.503 694.494 118.463 694.859 118.081C695.225 117.699 695.17 117.126 694.748 116.804Z" fill="white"/>
<path d="M697.838 119.16C697.409 118.834 696.767 118.875 696.401 119.256C696.036 119.638 696.091 120.21 696.52 120.537C696.941 120.858 697.583 120.817 697.948 120.435C698.316 120.053 698.259 119.481 697.838 119.16Z" fill="white"/>
<path d="M700.933 121.516C700.505 121.19 699.866 121.234 699.501 121.616C699.135 121.998 699.187 122.567 699.614 122.893C700.042 123.219 700.679 123.174 701.044 122.792C701.41 122.41 701.362 121.843 700.933 121.516Z" fill="white"/>
<path d="M697.061 116.18L703.026 120.721L705.648 108.408L698.064 110.836L698.743 107.235L689.104 110.119L692.418 112.644L697.061 116.18ZM701.679 117.315L696.403 113.297L702.983 111.19L701.679 117.315ZM693.156 110.825L696.172 109.918L695.873 111.539L694.62 111.94L693.156 110.825V110.825Z" fill="white"/>
<path d="M731.984 108.242C731.94 107.743 731.449 107.369 730.89 107.408L725.817 107.769L725.658 105.959C725.613 105.461 725.122 105.086 724.563 105.125C724.004 105.164 723.589 105.598 723.628 106.101L723.868 108.811C723.915 109.312 724.403 109.684 724.962 109.644L731.049 109.218C731.608 109.179 732.029 108.74 731.984 108.242Z" fill="white"/>
<path d="M708.78 124.558C708.829 125.06 709.312 125.436 709.874 125.392L709.88 125.395L711.904 125.25L712.064 127.059C712.108 127.558 712.599 127.932 713.158 127.893C713.717 127.854 714.134 127.42 714.093 126.917L713.93 125.112L715.96 124.969C716.519 124.93 716.939 124.492 716.895 123.994C716.85 123.496 716.359 123.121 715.8 123.16L713.77 123.302L713.614 121.496L713.611 121.493C713.566 120.995 713.079 120.624 712.516 120.659C711.957 120.698 711.537 121.137 711.581 121.635L711.741 123.445L709.715 123.582C709.152 123.626 708.737 124.06 708.78 124.558Z" fill="white"/>
<path style="mix-blend-mode:multiply" d="M672.826 279.839L674.057 277.086L674.468 276.169L674.878 275.251C672.066 274.251 670.702 271.379 671.834 268.849C672.966 266.32 676.173 265.075 678.986 266.076L679.397 265.157L679.807 264.239L681.04 261.487L678.633 245.737L665.773 245.417L665.349 251.649L641.898 243.304L630.397 268.996L653.849 277.342L649.344 282.122L658.918 289.783L672.826 279.839ZM652.406 281.917L655.524 278.611L657.5 276.514L654.67 275.506L633.259 267.887L643.117 245.863L664.528 253.484L667.357 254.49L667.544 251.756L667.837 247.444L676.706 247.664L678.782 261.248L677.648 263.781C674.346 263.521 671.097 265.214 669.795 268.123C668.493 271.032 669.542 274.255 672.137 276.093L671.003 278.625L659.008 287.203L652.406 281.917Z" fill="url(#paint1_linear)"/>
<path style="mix-blend-mode:multiply" d="M655.737 261.431L659.619 260.856L653.728 253.897L652.165 257.393L649.974 262.286L647.156 268.579L660.536 266.854L655.737 261.431ZM654.317 257.864L655.655 259.444L654.173 259.664L653.733 259.168L654.317 257.864ZM652.788 261.281L656.427 265.393L650.611 266.142L652.788 261.281Z" fill="url(#paint2_linear)"/>
<path d="M241.29 465.169L225.807 450.853L237.542 440.002C239.88 437.841 239.88 434.336 237.542 432.173C236.371 431.091 234.839 430.55 233.307 430.55C231.775 430.55 230.241 431.091 229.072 432.173L217.339 443.022L201.855 428.706L193.387 436.536L208.871 450.853L195.383 463.325V471.155H203.851L217.339 458.683L232.822 473L241.29 465.169ZM224.395 449.548L222.285 447.596L231.195 439.357L233.307 441.307L224.395 449.548ZM230.484 433.477C231.238 432.781 232.24 432.396 233.307 432.396C234.373 432.396 235.375 432.781 236.129 433.477C237.685 434.916 237.685 437.259 236.129 438.697L234.717 440.002L229.072 434.782L230.484 433.477ZM227.661 436.087L229.785 438.052L220.873 446.291L218.749 444.327L227.661 436.087ZM201.855 431.316L204.637 433.887L203.225 435.192C202.835 435.552 202.835 436.138 203.225 436.497C203.615 436.857 204.247 436.857 204.637 436.497C204.637 436.497 204.637 436.497 204.637 436.495L206.048 435.192L208.871 437.802L207.46 439.107C207.07 439.468 207.07 440.053 207.46 440.412C207.849 440.773 208.482 440.773 208.871 440.412L210.283 439.107L213.106 441.717L211.695 443.022H211.693C211.305 443.383 211.305 443.967 211.693 444.327C212.084 444.688 212.715 444.688 213.106 444.327L214.516 443.022L217.339 445.632L215.928 446.938C215.538 447.298 215.538 447.882 215.928 448.243C216.317 448.603 216.948 448.603 217.339 448.243L218.749 446.938L221.572 449.548L220.162 450.853C219.771 451.214 219.771 451.797 220.162 452.158C220.55 452.519 221.183 452.519 221.572 452.158C221.574 452.158 221.574 452.158 221.574 452.158L222.984 450.853L225.807 453.463L224.395 454.768C224.006 455.129 224.006 455.713 224.395 456.073C224.785 456.434 225.417 456.434 225.807 456.073L227.217 454.768L230.042 457.378L228.63 458.683C228.239 459.044 228.239 459.628 228.63 459.989C229.02 460.348 229.652 460.349 230.042 459.989C230.042 459.989 230.042 459.989 230.042 459.987L231.453 458.683L234.275 461.294L232.865 462.597V462.599C232.474 462.958 232.474 463.543 232.865 463.904C233.255 464.263 233.887 464.263 234.275 463.904L235.687 462.599L238.468 465.169L232.822 470.39L196.21 436.536L201.855 431.316ZM197.377 469.309V467.78L199.033 469.309H197.377ZM203.025 469.309H201.854L197.377 465.169V464.089L210.283 452.158L212.405 454.121L202.446 463.33C202.056 463.69 202.056 464.276 202.446 464.635C202.835 464.995 203.466 464.995 203.857 464.635L213.817 455.426L215.928 457.378L203.025 469.309Z" fill="white"/>
<path style="mix-blend-mode:multiply" d="M589.032 55.4475L573.549 41.1304L585.283 30.2805C587.622 28.1185 587.622 24.6126 585.283 22.4506C584.112 21.3692 582.581 20.8285 581.048 20.8285C579.517 20.8285 577.982 21.3692 576.813 22.4506L565.081 33.3003L549.597 18.9833L541.129 26.8134L556.612 41.1304L543.125 53.6017V61.4324H551.593L565.081 48.9606L580.564 63.2776L589.032 55.4475ZM572.136 39.8253L570.027 37.8734L578.937 29.6338L581.048 31.5856L572.136 39.8253ZM578.225 23.7549C578.98 23.058 579.982 22.6743 581.048 22.6743C582.115 22.6743 583.117 23.0582 583.871 23.7549C585.427 25.1946 585.427 27.5365 583.871 28.9754L582.459 30.2805L576.813 25.0601L578.225 23.7549ZM575.403 26.3652L577.526 28.3286L568.615 36.5683L566.491 34.6054L575.403 26.3652ZM549.597 21.5935L552.379 24.1646L550.967 25.4697C550.577 25.8299 550.577 26.4146 550.967 26.7748C551.357 27.135 551.989 27.135 552.379 26.7748C552.379 26.7748 552.379 26.7742 552.379 26.7734L553.79 25.4697L556.612 28.0799L555.202 29.3852C554.811 29.7454 554.811 30.3299 555.202 30.6903C555.59 31.0505 556.224 31.0505 556.612 30.6903C556.612 30.6895 556.612 30.6895 556.612 30.6895L558.025 29.3852L560.847 31.9954L559.437 33.299C559.437 33.299 559.435 33.2998 559.435 33.3005C559.046 33.6607 559.046 34.2447 559.435 34.6049C559.825 34.9658 560.457 34.9658 560.847 34.6049V34.6056L562.258 33.3005L565.081 35.9099L563.67 37.2151C563.28 37.576 563.28 38.16 563.67 38.5202C564.059 38.8804 564.69 38.8804 565.081 38.5202L566.491 37.2151L569.314 39.8253L567.903 41.1304C567.513 41.4906 567.513 42.0753 567.903 42.4355C568.292 42.7957 568.925 42.7957 569.314 42.4355C569.315 42.4349 569.315 42.4349 569.315 42.4349L570.726 41.1304L573.549 43.7406L572.136 45.0451V45.0457C571.748 45.4061 571.748 45.99 572.136 46.351C572.527 46.7112 573.158 46.7112 573.549 46.351L574.959 45.0457L577.784 47.6561L576.371 48.9606C575.981 49.3214 575.981 49.9055 576.371 50.2657C576.762 50.6259 577.393 50.6265 577.784 50.2657C577.784 50.2657 577.784 50.2657 577.784 50.2649L579.194 48.9606L582.017 51.5708L580.606 52.8752V52.8759C580.216 53.2361 580.216 53.8208 580.606 54.181C580.997 54.5412 581.628 54.5412 582.017 54.181L583.429 52.8759L586.209 55.4476L580.564 60.6674L543.952 26.8134L549.597 21.5935ZM545.119 59.5866V58.0578L546.774 59.5866H545.119ZM550.766 59.5866H549.595L545.119 55.4475V54.3668L558.025 42.4355L560.146 44.3989L550.188 53.6078C549.798 53.968 549.798 54.5527 550.188 54.9129C550.576 55.2731 551.208 55.2731 551.598 54.9129L561.559 45.7041L563.67 47.6555L550.766 59.5866Z" fill="url(#paint3_linear)"/>
<path style="mix-blend-mode:multiply" d="M579.856 348.957L570.955 356.645C570.545 356.998 570.535 357.582 570.93 357.946C571.328 358.313 571.982 358.322 572.392 357.968L581.293 350.281C581.703 349.927 581.714 349.345 581.316 348.977C580.921 348.614 580.266 348.603 579.856 348.957Z" fill="url(#paint4_linear)"/>
<path style="mix-blend-mode:multiply" d="M569.516 355.321L572.483 352.758C572.892 352.404 572.903 351.822 572.507 351.456C572.11 351.091 571.457 351.083 571.047 351.437L568.079 353.999C567.671 354.353 567.659 354.935 568.056 355.301C568.453 355.666 569.106 355.674 569.516 355.321Z" fill="url(#paint5_linear)"/>
<path style="mix-blend-mode:multiply" d="M590.94 336.115L587.372 335.265L589.455 343.233L592.281 340.793L596.235 337.377L601.324 332.984L589.137 329.833L590.94 336.115ZM590.636 339.649L590.164 337.836L591.525 338.16L591.69 338.738L590.636 339.649ZM593.399 337.263L592.034 332.5L597.33 333.868L593.399 337.263Z" fill="url(#paint6_linear)"/>
<path style="mix-blend-mode:multiply" d="M584.867 313.863L550.742 343.332C550.332 343.686 550.321 344.27 550.719 344.635L570.836 363.155C571.232 363.52 571.886 363.528 572.296 363.175L606.419 333.707C606.829 333.354 606.84 332.771 606.444 332.407L586.325 313.885C585.929 313.52 585.275 313.51 584.867 313.863ZM584.105 317.086L577.899 337.431C577.851 337.592 577.564 337.839 577.381 337.879L554.372 342.762L584.105 317.086ZM571.601 361.211L553.758 344.785L577.86 339.669C578.316 339.573 578.763 339.336 579.127 339.022C579.489 338.709 579.771 338.318 579.893 337.915L586.394 316.595L604.241 333.024L571.601 361.211Z" fill="url(#paint7_linear)"/>
<path style="mix-blend-mode:multiply" d="M509.194 20.1337C509.194 9.01383 499.132 0 486.72 0C482.627 0 478.791 0.980589 475.484 2.69403C472.177 0.980708 468.341 0 464.248 0C451.836 0 441.774 9.01383 441.774 20.1337C441.774 27.6461 446.366 34.1963 453.173 37.6563C454.508 47.6333 463.987 55.3679 475.484 55.3679C486.981 55.3679 496.46 47.6333 497.794 37.6563C504.602 34.1963 509.194 27.6461 509.194 20.1337ZM456.259 38.9568C458.743 39.8029 461.434 40.2673 464.248 40.2673C468.341 40.2673 472.177 39.2868 475.484 37.5733C478.791 39.2867 482.627 40.2673 486.72 40.2673C489.534 40.2673 492.225 39.8029 494.709 38.9568C494.452 40.0269 494.083 41.0738 493.604 42.0904C492.614 44.1882 491.194 46.0729 489.388 47.6914C487.582 49.3099 485.48 50.5808 483.138 51.4684C480.714 52.3864 478.14 52.8518 475.484 52.8518C472.828 52.8518 470.254 52.3864 467.83 51.4684C465.488 50.5809 463.386 49.3099 461.579 47.6914C459.773 46.0729 458.354 44.1882 457.364 42.0904C456.885 41.0738 456.516 40.0269 456.259 38.9568ZM495.126 36.0646C494.878 36.1698 494.627 36.271 494.374 36.3678C491.952 37.2857 489.376 37.7513 486.72 37.7513C484.064 37.7513 481.489 37.2858 479.068 36.3678C478.745 36.2452 478.429 36.1152 478.113 35.9788C483.18 32.4138 486.496 26.9401 486.707 20.766C487.66 21.3603 488.558 22.0314 489.388 22.7769C491.194 24.3954 492.614 26.2801 493.604 28.377C494.629 30.5476 495.147 32.8545 495.147 35.2342C495.147 35.5125 495.14 35.789 495.126 36.0646ZM483.888 19.3033C483.902 19.5789 483.911 19.8554 483.911 20.1337C483.911 22.5134 483.393 24.8203 482.368 26.99C481.376 29.0876 479.958 30.9725 478.152 32.591C477.324 33.3338 476.433 34.0019 475.484 34.5937C474.535 34.0019 473.644 33.3338 472.815 32.591C471.009 30.9725 469.592 29.0878 468.6 26.99C467.574 24.8203 467.056 22.5134 467.056 20.1337C467.056 19.8554 467.065 19.5789 467.08 19.3033C467.326 19.1981 467.576 19.0969 467.83 19C470.254 18.0822 472.828 17.6166 475.484 17.6166C478.14 17.6166 480.714 18.082 483.138 19C483.391 19.0969 483.642 19.1981 483.888 19.3033ZM475.484 15.1005C472.672 15.1005 469.979 15.5651 467.496 16.411C467.754 15.3411 468.121 14.294 468.6 13.2775C469.592 11.1798 471.009 9.29496 472.815 7.67649C473.644 6.93361 474.535 6.26541 475.484 5.67366C476.433 6.26541 477.324 6.93361 478.152 7.67649C479.958 9.29496 481.376 11.1797 482.368 13.2775C482.849 14.294 483.216 15.3411 483.471 16.411C480.989 15.565 478.296 15.1005 475.484 15.1005ZM464.26 20.766C464.471 26.9401 467.787 32.4138 472.855 35.9788C472.54 36.1152 472.223 36.2452 471.9 36.3678C469.478 37.2857 466.904 37.7513 464.248 37.7513C461.592 37.7513 459.016 37.2858 456.594 36.3678C456.342 36.271 456.09 36.1696 455.842 36.0646C455.828 35.789 455.82 35.5125 455.82 35.2342C455.82 32.8545 456.339 30.5476 457.364 28.3779C458.354 26.2803 459.773 24.3954 461.579 22.7769C462.41 22.0314 463.308 21.3603 464.26 20.766ZM472.855 4.28854C468.281 7.50518 465.137 12.2756 464.411 17.7116C457.795 21.0738 453.273 27.3559 453.023 34.6019C452.07 34.0076 451.176 33.3365 450.344 32.591C448.536 30.9725 447.118 29.0878 446.128 26.99C445.103 24.8203 444.583 22.5134 444.583 20.1337C444.583 17.754 445.103 15.447 446.128 13.2775C447.118 11.1798 448.536 9.29496 450.344 7.67649C452.15 6.05802 454.252 4.78709 456.594 3.89947C459.016 2.98153 461.592 2.516 464.248 2.516C466.904 2.516 469.478 2.9814 471.9 3.89947C472.223 4.02216 472.54 4.15205 472.855 4.28854ZM504.84 13.2775C505.865 15.4471 506.385 17.754 506.385 20.1337C506.385 22.5134 505.865 24.8203 504.84 26.99C503.85 29.0876 502.432 30.9725 500.624 32.591C499.794 33.3365 498.898 34.0076 497.945 34.6019C497.695 27.3559 493.173 21.0738 486.557 17.7116C485.831 12.2756 482.687 7.50507 478.113 4.28854C478.429 4.15216 478.745 4.02216 479.068 3.89959C481.489 2.98164 484.064 2.51612 486.72 2.51612C489.376 2.51612 491.952 2.98153 494.374 3.89959C496.716 4.78709 498.818 6.05813 500.624 7.6766C502.432 9.29496 503.85 11.1798 504.84 13.2775Z" fill="url(#paint8_linear)"/>
<path d="M314.119 64.7121L327.151 72.7058L332.736 76.1318L345.769 84.1263L378.37 45.4265L342.998 23.7289L314.119 64.7121ZM317.185 64.1467L319.593 60.7324L330.993 67.7257L328.432 71.0456L317.185 64.1467ZM330.294 72.188L335.417 65.5483L337.279 66.69L332.156 73.3299L330.294 72.188ZM334.017 74.4716L336.579 71.1517L347.981 78.1458L345.265 81.3702L334.017 74.4716ZM375.148 45.8971L349.34 76.5331L337.86 69.4915L340.422 66.1716C340.775 65.7132 340.645 65.0865 340.131 64.7713C339.618 64.456 338.913 64.5715 338.56 65.0299C338.913 64.5715 338.782 63.9441 338.268 63.6288C337.755 63.3134 337.052 63.4298 336.698 63.8881C337.052 63.4298 336.921 62.8024 336.407 62.4871C335.894 62.1717 335.189 62.2871 334.836 62.7456L332.274 66.0654L320.795 59.0244L343.656 26.5801L375.148 45.8971Z" fill="white"/>
<path d="M341.168 55.2163L351.024 50.982L350.678 55.9249L363.241 50.819L358.364 47.828L351.539 43.6408L342.76 38.2568L341.168 55.2163ZM358.669 50.4624L353.169 52.698L353.357 49.9787L356.018 48.8365L358.669 50.4624ZM353.873 47.5208L343.75 51.8702L344.687 41.8858L353.873 47.5208Z" fill="white"/>
<path style="mix-blend-mode:multiply" d="M777.602 239.879C777.602 236.321 774.368 233.436 770.376 233.436C769.842 233.436 769.322 233.488 768.82 233.586L764.031 229.316L777.027 217.727C779.279 215.72 779.279 212.466 777.027 210.458C775.903 209.455 774.428 208.952 772.952 208.952C771.478 208.952 770.002 209.455 768.875 210.458L755.877 222.047L741.075 208.848C740.325 208.179 739.34 207.845 738.359 207.845C737.374 207.845 736.39 208.179 735.639 208.848C734.14 210.186 734.14 212.355 735.639 213.695L750.443 226.893L736.441 239.378V246.647H744.595L758.595 234.162L763.343 238.395C763.217 238.871 763.148 239.368 763.148 239.879C763.148 247.177 775.218 247.754 779.208 247.754C783.2 247.755 777.602 243.438 777.602 239.879ZM772.952 210.665C773.979 210.665 774.943 211.023 775.668 211.67C777.168 213.005 777.168 215.18 775.668 216.515L774.311 217.727L768.875 212.88L770.234 211.67C770.96 211.023 771.925 210.665 772.952 210.665ZM736.998 212.481C736.249 211.814 736.249 210.727 736.998 210.059C737.362 209.735 737.844 209.558 738.359 209.558C738.87 209.558 739.354 209.735 739.716 210.059L754.52 223.258L751.802 225.681L736.998 212.481ZM738.364 244.933V243.514L739.954 244.933H738.364ZM743.799 244.933H742.674L738.364 241.091V240.088L767.518 214.092L769.562 215.916L743.241 239.382C742.865 239.718 742.865 240.26 743.241 240.594C743.616 240.929 744.226 240.929 744.6 240.594L770.919 217.126L772.952 218.939L743.799 244.933ZM759.954 232.95L762.671 230.528L766.851 234.254C765.713 234.822 764.766 235.655 764.115 236.66L759.954 232.95ZM770.296 244.93C768.625 244.427 767.337 243.774 766.467 242.986C765.527 242.136 765.071 241.121 765.071 239.879C765.071 238.617 765.623 237.429 766.624 236.535C767.626 235.643 768.958 235.151 770.376 235.151C773.302 235.151 775.681 237.272 775.681 239.879C775.681 241.83 776.846 243.733 777.783 245.261C777.923 245.489 778.092 245.764 778.246 246.03C776.178 245.982 773.044 245.756 770.296 244.93Z" fill="url(#paint9_linear)"/>
<path style="mix-blend-mode:multiply" d="M618.636 179.466L703.61 200.933L708.781 184.665L623.806 163.196L618.636 179.466ZM701.431 197.456L695.438 195.941L696.302 193.229C696.538 192.479 696.05 191.701 695.211 191.487C694.371 191.277 693.499 191.712 693.259 192.46C693.259 192.462 693.259 192.462 693.259 192.462L692.399 195.172L686.315 193.636L687.177 190.924C687.415 190.174 686.927 189.396 686.086 189.184C685.249 188.972 684.372 189.406 684.136 190.156L683.274 192.869L677.192 191.331L678.052 188.619V188.618C678.292 187.871 677.802 187.091 676.963 186.879C676.122 186.667 675.249 187.102 675.011 187.851C675.011 187.852 675.011 187.852 675.011 187.852L674.149 190.562L668.067 189.024L668.929 186.315C669.167 185.565 668.679 184.786 667.838 184.573C667.001 184.362 666.126 184.797 665.887 185.546L665.026 188.257L658.944 186.721L659.807 184.01C660.044 183.26 659.555 182.482 658.715 182.27C657.876 182.056 657.002 182.491 656.764 183.241L655.903 185.954L649.821 184.416L650.682 181.703C650.921 180.957 650.432 180.175 649.593 179.965C648.752 179.753 647.879 180.186 647.641 180.936L646.779 183.647L640.697 182.11L641.559 179.4C641.795 178.65 641.309 177.872 640.468 177.658C639.629 177.448 638.756 177.883 638.516 178.629C638.516 178.629 638.516 178.629 638.518 178.633L637.656 181.343L631.572 179.806L632.433 177.097C632.434 177.095 632.434 177.095 632.434 177.095C632.672 176.345 632.184 175.567 631.345 175.355C630.504 175.141 629.629 175.576 629.393 176.326L628.531 179.036L622.54 177.524L625.985 166.676L704.878 186.609L701.431 197.456Z" fill="url(#paint10_linear)"/>
<path style="mix-blend-mode:multiply" d="M687.044 45.5334L662.122 17.9993C661.822 17.6696 661.279 17.6174 660.908 17.8843L639.428 33.3427C639.057 33.6094 638.999 34.0938 639.299 34.4235L648.29 44.3573L643.613 46.5394L643.397 46.3C643.099 45.9704 642.554 45.9186 642.183 46.1854C641.813 46.4522 641.756 46.9366 642.054 47.2663L650.723 56.8442C651.022 57.1738 651.565 57.226 651.936 56.9592C652.307 56.6924 652.366 56.2076 652.066 55.8779L651.849 55.6378L655.227 52.0221L664.221 61.9576C664.519 62.2873 665.062 62.3395 665.432 62.0726L686.914 46.6144C687.285 46.3475 687.342 45.8631 687.044 45.5334ZM644.719 47.7608L649.388 45.5817L654.118 50.8045L650.744 54.4173L644.719 47.7608ZM685.158 45.9L667.705 58.4595L643.869 32.1248L661.322 19.5653L685.158 45.9ZM653.102 47.2247L641.183 34.0574L642.526 33.0912L654.445 46.2584L666.362 59.4257L665.021 60.392L653.102 47.2247Z" fill="url(#paint11_linear)"/>
<path style="mix-blend-mode:multiply" d="M654.314 47.3397C654.684 47.0728 654.743 46.5892 654.445 46.2588C654.145 45.9283 653.602 45.8769 653.231 46.1438C652.861 46.4105 652.802 46.8946 653.102 47.225C653.4 47.5555 653.943 47.6064 654.314 47.3397Z" fill="url(#paint12_linear)"/>
<path style="mix-blend-mode:multiply" d="M660.264 23.2926L676.516 41.2472C676.516 41.2472 676.516 41.2481 676.518 41.2489C676.816 41.5786 677.359 41.6308 677.729 41.3639C678.1 41.0972 678.159 40.6124 677.861 40.2827L661.607 22.3264C661.308 21.995 660.763 21.9432 660.392 22.21C660.021 22.4768 659.965 22.9612 660.264 23.2926Z" fill="url(#paint13_linear)"/>
<path style="mix-blend-mode:multiply" d="M657.578 25.2256L666.245 34.8009C666.247 34.8017 666.247 34.8017 666.247 34.8017C666.547 35.1323 667.088 35.1836 667.459 34.9167C667.829 34.65 667.888 34.1664 667.588 33.8359L658.921 24.2597C658.621 23.9284 658.078 23.8762 657.708 24.1429C657.337 24.4098 657.278 24.8942 657.578 25.2256Z" fill="url(#paint14_linear)"/>
<path style="mix-blend-mode:multiply" d="M654.888 27.1583L666.807 40.3247C666.807 40.3257 666.807 40.3257 666.807 40.3257C667.107 40.6562 667.65 40.7074 668.021 40.4407C668.392 40.1738 668.45 39.6899 668.15 39.3593L656.232 26.192C655.932 25.8606 655.389 25.8084 655.018 26.0753C654.647 26.3423 654.589 26.8268 654.888 27.1583Z" fill="url(#paint15_linear)"/>
<path style="mix-blend-mode:multiply" d="M652.208 29.09L659.791 37.4684C660.09 37.7998 660.635 37.8519 661.004 37.5852C661.375 37.3184 661.434 36.8339 661.134 36.5025L653.551 28.1237C653.249 27.7923 652.706 27.7404 652.335 28.0073C651.965 28.274 651.908 28.7586 652.208 29.09Z" fill="url(#paint16_linear)"/>
<path style="mix-blend-mode:multiply" d="M649.521 31.0225L663.607 46.5834C663.907 46.9148 664.451 46.9668 664.82 46.7001C665.191 46.4333 665.25 45.9489 664.95 45.6175L650.865 30.0565C650.565 29.7251 650.022 29.6729 649.651 29.9398C649.28 30.2065 649.222 30.6911 649.521 31.0225Z" fill="url(#paint17_linear)"/>
<path style="mix-blend-mode:multiply" d="M646.836 32.955L651.17 37.7422C651.47 38.0735 652.013 38.1257 652.384 37.859C652.754 37.5921 652.813 37.1073 652.513 36.7758L648.179 31.9887C647.879 31.6573 647.336 31.6051 646.965 31.872C646.594 32.139 646.536 32.6236 646.836 32.955Z" fill="url(#paint18_linear)"/>
<path d="M528.202 242.217L521.46 235.889L513.787 256.469L523.964 254.444L538.216 251.611L556.534 247.967L533.892 225.795L528.202 242.217ZM518.861 252.383L522.887 241.588L527.063 245.508L525.112 251.139L518.861 252.383ZM528.898 250.386L535.37 231.705L550.137 246.162L528.898 250.386Z" fill="white"/>
<path d="M545.188 202.615L544.44 199.619C544.234 198.793 543.331 198.269 542.423 198.45C541.512 198.63 540.946 199.446 541.152 200.274L541.901 203.268L535.324 204.576L534.575 201.582C534.368 200.754 533.466 200.231 532.558 200.411C531.648 200.592 531.08 201.408 531.288 202.235L532.036 205.23L525.459 206.538L524.711 203.543C524.503 202.716 523.6 202.192 522.693 202.373C521.783 202.553 521.216 203.369 521.421 204.197L522.172 207.191L515.595 208.5L514.846 205.505C514.639 204.678 513.736 204.154 512.827 204.334C511.919 204.516 511.349 205.333 511.557 206.158L512.306 209.153L505.729 210.461L504.98 207.467C504.774 206.639 503.869 206.116 502.963 206.296C502.052 206.478 501.485 207.294 501.691 208.122L502.441 211.116L492.575 213.078L509.055 278.958L571.533 266.532L555.055 200.652L545.188 202.615ZM567.513 264.252L511.61 275.37L496.597 215.356L503.174 214.048L503.892 216.917C504.098 217.745 505.003 218.268 505.911 218.088C506.82 217.907 507.387 217.09 507.18 216.264L506.463 213.394L513.04 212.086L513.757 214.956C513.964 215.781 514.867 216.307 515.776 216.126C516.684 215.946 517.252 215.128 517.046 214.301L516.328 211.433L522.905 210.124L523.623 212.994C523.829 213.82 524.732 214.345 525.642 214.165C526.551 213.983 527.118 213.166 526.911 212.339L526.194 209.469L532.769 208.163L533.488 211.031C533.695 211.858 534.597 212.383 535.507 212.201C536.415 212.021 536.983 211.205 536.775 210.377L536.057 207.508L542.635 206.201L543.352 209.069C543.56 209.897 544.463 210.422 545.373 210.24C546.281 210.059 546.847 209.243 546.64 208.416L545.923 205.546L552.5 204.238L567.513 264.252Z" fill="white"/>
<path style="mix-blend-mode:multiply" d="M564.603 86.1124L524.265 117.759C523.781 118.139 523.733 118.798 524.159 119.229L548.849 144.251C549.276 144.683 550.014 144.724 550.499 144.344L565.052 132.926L568.633 138.441L568.281 138.716C567.797 139.096 567.751 139.755 568.177 140.187C568.602 140.619 569.341 140.66 569.825 140.28L583.857 129.272C584.341 128.892 584.387 128.235 583.962 127.803C583.536 127.371 582.798 127.328 582.313 127.708L581.962 127.983L576.281 124.117L590.838 112.697C591.321 112.317 591.369 111.66 590.943 111.228L566.252 86.2069C565.826 85.775 565.088 85.7324 564.603 86.1124ZM570.421 137.038L566.846 131.531L574.498 125.524L580.174 129.386L570.421 137.038V137.038ZM572.986 96.1835L567.724 100.311L560.008 92.4925L565.271 88.3646L572.986 96.1835ZM569.268 101.875L574.528 97.7476L585.331 108.694L580.069 112.822L569.268 101.875ZM558.255 93.8682L578.316 114.197L546.746 138.964L526.685 118.635L558.255 93.8682ZM569.124 126.958L549.833 142.093L548.29 140.528L567.581 125.394L586.875 110.258L588.417 111.822L569.124 126.958Z" fill="url(#paint19_linear)"/>
<path style="mix-blend-mode:multiply" d="M569.227 125.488C568.801 125.056 568.065 125.013 567.579 125.394C567.094 125.774 567.048 126.431 567.474 126.863C567.9 127.295 568.638 127.338 569.122 126.958C569.607 126.577 569.653 125.919 569.227 125.488Z" fill="url(#paint20_linear)"/>
<path style="mix-blend-mode:multiply" d="M557.345 119.524L563.358 114.807L549.782 110.66L551.437 117.844L547.458 116.712L549.326 125.815L552.668 123.193L557.345 119.524ZM552.894 113.812L558.791 115.614L554.146 119.258L552.894 113.812ZM550.882 121.82L550.456 119.752L551.975 120.183L552.125 120.843L550.882 121.82Z" fill="url(#paint21_linear)"/>
<path style="mix-blend-mode:multiply" d="M536.786 116.258L535.031 117.634L536.575 119.198L538.329 117.822L536.786 116.258Z" fill="url(#paint22_linear)"/>
<path style="mix-blend-mode:multiply" d="M546.429 108.692L544.676 110.067L546.219 111.631L547.972 110.256L546.429 108.692Z" fill="url(#paint23_linear)"/>
<path style="mix-blend-mode:multiply" d="M556.077 101.124L554.322 102.501L555.864 104.065L557.618 102.688L556.077 101.124Z" fill="url(#paint24_linear)"/>
<path style="mix-blend-mode:multiply" d="M562.249 107.379L560.494 108.756L562.038 110.319L563.793 108.942L562.249 107.379Z" fill="url(#paint25_linear)"/>
<path style="mix-blend-mode:multiply" d="M568.425 113.634L566.67 115.011L568.212 116.575L569.967 115.198L568.425 113.634Z" fill="url(#paint26_linear)"/>
<path style="mix-blend-mode:multiply" d="M549.132 128.769L547.378 130.145L548.921 131.709L550.676 130.333L549.132 128.769Z" fill="url(#paint27_linear)"/>
<path style="mix-blend-mode:multiply" d="M542.958 122.514L541.205 123.89L542.749 125.453L544.502 124.078L542.958 122.514Z" fill="url(#paint28_linear)"/>
<path style="mix-blend-mode:multiply" d="M558.777 121.203L557.024 122.578L558.567 124.142L560.32 122.767L558.777 121.203Z" fill="url(#paint29_linear)"/>
<path style="mix-blend-mode:multiply" d="M790.403 166.104C800.692 166.104 809.032 158.667 809.032 149.493C809.032 140.32 800.692 132.883 790.403 132.883C780.115 132.883 771.774 140.32 771.774 149.493C771.774 158.667 780.115 166.104 790.403 166.104Z" stroke="url(#paint30_linear)" stroke-width="10"/>
<path d="M645.807 410.999V404.809H635.255V393.903H627.971V404.809H617.419V410.999H627.971V422.378H635.255V410.999H645.807Z" fill="white"/>
<path style="mix-blend-mode:multiply" d="M717.612 461.926C717.612 459.544 710.327 439.226 738.739 446.376C767.151 453.525 775.892 441.61 781.72 418.646C787.549 395.683 804.547 393.517 817.903 393.949" stroke="url(#paint31_linear)" stroke-width="8" stroke-linecap="round" stroke-linejoin="round"/>
<path style="mix-blend-mode:multiply" d="M795.188 70.8385C794.25 71.2657 787.543 77.1793 785.29 67.0341C783.037 56.8888 776.781 56.2968 766.691 58.5938C756.601 60.8909 752.714 55.9758 750.501 51.7313" stroke="url(#paint32_linear)" stroke-width="8" stroke-linecap="round" stroke-linejoin="round"/>
<path d="M23.0646 297.405C30.9035 297.405 37.2582 291.739 37.2582 284.749C37.2582 277.76 30.9035 272.094 23.0646 272.094C15.2258 272.094 8.87109 277.76 8.87109 284.749C8.87109 291.739 15.2258 297.405 23.0646 297.405Z" stroke="white" stroke-width="10"/>
<defs>
<linearGradient id="paint0_linear" x1="474.677" y1="91.5095" x2="406.369" y2="114.089" gradientUnits="userSpaceOnUse">
<stop stop-color="#1590D8"/>
<stop offset="1" stop-color="#157BD8"/>
</linearGradient>
<linearGradient id="paint1_linear" x1="666.344" y1="291.762" x2="668.135" y2="237.285" gradientUnits="userSpaceOnUse">
<stop stop-color="#157BD8"/>
<stop offset="1" stop-color="#FF8A00"/>
</linearGradient>
<linearGradient id="paint2_linear" x1="657.855" y1="272.165" x2="657.226" y2="254.558" gradientUnits="userSpaceOnUse">
<stop stop-color="#1590D8"/>
<stop offset="1" stop-color="#1590D8"/>
</linearGradient>
<linearGradient id="paint3_linear" x1="588.409" y1="20.0544" x2="535.347" y2="36.968" gradientUnits="userSpaceOnUse">
<stop stop-color="#157BD8"/>
<stop offset="1" stop-color="#1590D8"/>
</linearGradient>
<linearGradient id="paint4_linear" x1="580.499" y1="348.465" x2="582.45" y2="355.117" gradientUnits="userSpaceOnUse">
<stop stop-color="#FFC000"/>
<stop offset="1" stop-color="#FF8A00"/>
</linearGradient>
<linearGradient id="paint5_linear" x1="571.766" y1="350.877" x2="571.42" y2="355.917" gradientUnits="userSpaceOnUse">
<stop stop-color="#FFC000"/>
<stop offset="1" stop-color="#FF8A00"/>
</linearGradient>
<linearGradient id="paint6_linear" x1="593.691" y1="326.232" x2="588.019" y2="341.924" gradientUnits="userSpaceOnUse">
<stop stop-color="#FFC000"/>
<stop offset="1" stop-color="#FF8A00"/>
</linearGradient>
<linearGradient id="paint7_linear" x1="585.665" y1="314.104" x2="569.912" y2="360.94" gradientUnits="userSpaceOnUse">
<stop stop-color="#1590D8"/>
<stop offset="1" stop-color="#1590D8"/>
</linearGradient>
<linearGradient id="paint8_linear" x1="508.317" y1="1.339" x2="435.438" y2="27.495" gradientUnits="userSpaceOnUse">
<stop stop-color="#157BD8"/>
<stop offset="1" stop-color="#157BD8"/>
</linearGradient>
<linearGradient id="paint9_linear" x1="780.044" y1="208.81" x2="729.609" y2="225.992" gradientUnits="userSpaceOnUse">
<stop stop-color="#157BD8"/>
<stop offset="1" stop-color="#1590D8"/>
</linearGradient>
<linearGradient id="paint10_linear" x1="614.18" y1="168.995" x2="670.512" y2="230.859" gradientUnits="userSpaceOnUse">
<stop stop-color="#1590D8"/>
<stop offset="1" stop-color="#159ED8" stop-opacity="0.42"/>
</linearGradient>
<linearGradient id="paint11_linear" x1="686.565" y1="46.2485" x2="648.967" y2="19.4081" gradientUnits="userSpaceOnUse">
<stop stop-color="#1590D8"/>
<stop offset="1" stop-color="#1590D8"/>
</linearGradient>
<linearGradient id="paint12_linear" x1="654.938" y1="46.8645" x2="653.407" y2="45.676" gradientUnits="userSpaceOnUse">
<stop stop-color="#FFC000"/>
<stop offset="1" stop-color="#FF8A00"/>
</linearGradient>
<linearGradient id="paint13_linear" x1="678.143" y1="40.6551" x2="672.227" y2="44.0265" gradientUnits="userSpaceOnUse">
<stop stop-color="#FFC000"/>
<stop offset="1" stop-color="#FF8A00"/>
</linearGradient>
<linearGradient id="paint14_linear" x1="667.971" y1="34.3172" x2="661.782" y2="36.6068" gradientUnits="userSpaceOnUse">
<stop stop-color="#FFC000"/>
<stop offset="1" stop-color="#FF8A00"/>
</linearGradient>
<linearGradient id="paint15_linear" x1="668.491" y1="39.794" x2="662.41" y2="42.705" gradientUnits="userSpaceOnUse">
<stop stop-color="#FFC000"/>
<stop offset="1" stop-color="#FF8A00"/>
</linearGradient>
<linearGradient id="paint16_linear" x1="661.531" y1="37.0006" x2="655.328" y2="38.9859" gradientUnits="userSpaceOnUse">
<stop stop-color="#FFC000"/>
<stop offset="1" stop-color="#FF8A00"/>
</linearGradient>
<linearGradient id="paint17_linear" x1="665.262" y1="46.0226" x2="659.267" y2="49.1986" gradientUnits="userSpaceOnUse">
<stop stop-color="#FFC000"/>
<stop offset="1" stop-color="#FF8A00"/>
</linearGradient>
<linearGradient id="paint18_linear" x1="652.953" y1="37.3211" x2="647.071" y2="37.8691" gradientUnits="userSpaceOnUse">
<stop stop-color="#FFC000"/>
<stop offset="1" stop-color="#FF8A00"/>
</linearGradient>
<linearGradient id="paint19_linear" x1="565.716" y1="86.6487" x2="538.514" y2="139.402" gradientUnits="userSpaceOnUse">
<stop stop-color="#157BD8"/>
<stop offset="1" stop-color="#157BD8"/>
</linearGradient>
<linearGradient id="paint20_linear" x1="568.471" y1="124.762" x2="567.24" y2="126.951" gradientUnits="userSpaceOnUse">
<stop stop-color="#FFC000"/>
<stop offset="1" stop-color="#FF8A00"/>
</linearGradient>
<linearGradient id="paint21_linear" x1="555.143" y1="106.811" x2="547.926" y2="124.325" gradientUnits="userSpaceOnUse">
<stop stop-color="#FFC000"/>
<stop offset="1" stop-color="#FF8A00"/>
</linearGradient>
<linearGradient id="paint22_linear" x1="536.8" y1="116.314" x2="535.569" y2="118.503" gradientUnits="userSpaceOnUse">
<stop stop-color="#1529D8"/>
<stop offset="1" stop-color="#FF8A00"/>
</linearGradient>
<linearGradient id="paint23_linear" x1="546.445" y1="108.747" x2="545.213" y2="110.937" gradientUnits="userSpaceOnUse">
<stop stop-color="#FFC000"/>
<stop offset="1" stop-color="#FF8A00"/>
</linearGradient>
<linearGradient id="paint24_linear" x1="556.091" y1="101.18" x2="554.858" y2="103.371" gradientUnits="userSpaceOnUse">
<stop stop-color="#FFC000"/>
<stop offset="1" stop-color="#FF8A00"/>
</linearGradient>
<linearGradient id="paint25_linear" x1="562.263" y1="107.435" x2="561.032" y2="109.626" gradientUnits="userSpaceOnUse">
<stop stop-color="#FFC000"/>
<stop offset="1" stop-color="#FF8A00"/>
</linearGradient>
<linearGradient id="paint26_linear" x1="568.439" y1="113.69" x2="567.207" y2="115.881" gradientUnits="userSpaceOnUse">
<stop stop-color="#FFC000"/>
<stop offset="1" stop-color="#FF8A00"/>
</linearGradient>
<linearGradient id="paint27_linear" x1="549.147" y1="128.825" x2="547.915" y2="131.014" gradientUnits="userSpaceOnUse">
<stop stop-color="#1529D8"/>
<stop offset="1" stop-color="#FF8A00"/>
</linearGradient>
<linearGradient id="paint28_linear" x1="542.972" y1="122.57" x2="541.743" y2="124.759" gradientUnits="userSpaceOnUse">
<stop stop-color="#FFC000"/>
<stop offset="1" stop-color="#FF8A00"/>
</linearGradient>
<linearGradient id="paint29_linear" x1="558.791" y1="121.258" x2="557.561" y2="123.447" gradientUnits="userSpaceOnUse">
<stop stop-color="#FFC000"/>
<stop offset="1" stop-color="#FF8A00"/>
</linearGradient>
<linearGradient id="paint30_linear" x1="817.188" y1="126.159" x2="756.688" y2="146.159" gradientUnits="userSpaceOnUse">
<stop stop-color="#157BD8"/>
<stop offset="1" stop-color="#1590D8"/>
</linearGradient>
<linearGradient id="paint31_linear" x1="816.589" y1="395.548" x2="713.067" y2="440.911" gradientUnits="userSpaceOnUse">
<stop stop-color="#157BD8"/>
<stop offset="1" stop-color="#157BD8"/>
</linearGradient>
<linearGradient id="paint32_linear" x1="751.365" y1="51.855" x2="781.627" y2="82.1132" gradientUnits="userSpaceOnUse">
<stop stop-color="#157BD8"/>
<stop offset="1" stop-color="#1590D8"/>
</linearGradient>
</defs>
</svg>